{
  "accessors": [
    {
      "bufferView": 2,
      "componentType": 5126,
      "count": 1865,
      "max": [
        0.9590849280357361,
        0.9909878969192505,
        0.4129028916358948
      ],
      "min": [
        -0.990989089012146,
        -0.9909912943840027,
        -0.4129028916358948
      ],
      "type": "VEC3"
    },
    {
      "bufferView": 2,
      "byteOffset": 22380,
      "componentType": 5126,
      "count": 1865,
      "max": [
        0.9732999801635742,
        1.0,
        0.3560102581977844
      ],
      "min": [
        -1.0,
        -1.0,
        -0.3560088276863098
      ],
      "type": "VEC3"
    },
    {
      "bufferView": 1,
      "componentType": 5126,
      "count": 1865,
      "max": [
        1.0000001192092896,
        0.6387202143669128
      ],
      "min": [
        0.0,
        0.36127981543540955
      ],
      "type": "VEC2"
    },
    {
      "bufferView": 0,
      "componentType": 5125,
      "count": 8832,
      "type": "SCALAR"
    },
    {
      "bufferView": 2,
      "byteOffset": 44760,
      "componentType": 5126,
      "count": 8054,
      "max": [
        1.0721673965454102,
        1.061203122138977,
        0.26495349407196045
      ],
      "min": [
        -1.0612035989761353,
        -1.0612046718597412,
        -1.0737831592559814
      ],
      "type": "VEC3"
    },
    {
      "bufferView": 2,
      "byteOffset": 141408,
      "componentType": 5126,
      "count": 8054,
      "max": [
        1.0,
        1.0,
        1.0
      ],
      "min": [
        -0.9981813430786133,
        -1.0,
        -1.0
      ],
      "type": "VEC3"
    },
    {
      "bufferView": 1,
      "byteOffset": 14920,
      "componentType": 5126,
      "count": 8054,
      "max": [
        1.0000001192092896,
        1.0000001192092896
      ],
      "min": [
        0.0,
        0.010000006295740604
      ],
      "type": "VEC2"
    },
    {
      "bufferView": 0,
      "byteOffset": 35328,
      "componentType": 5125,
      "count": 41088,
      "type": "SCALAR"
    },
    {
      "bufferView": 2,
      "byteOffset": 238056,
      "componentType": 5126,
      "count": 6572,
      "max": [
        0.994274914264679,
        1.061203122138977,
        1.0738047361373901
      ],
      "min": [
        -1.0612035989761353,
        -1.0612046718597412,
        0.07986358553171158
      ],
      "type": "VEC3"
    },
    {
      "bufferView": 2,
      "byteOffset": 316920,
      "componentType": 5126,
      "count": 6572,
      "max": [
        0.9232558608055115,
        0.9981812238693237,
        1.0
      ],
      "min": [
        -0.9981813430786133,
        -0.9981814622879028,
        -0.9999786615371704
      ],
      "type": "VEC3"
    },
    {
      "bufferView": 1,
      "byteOffset": 79352,
      "componentType": 5126,
      "count": 6572,
      "max": [
        1.0000001192092896,
        0.9760786890983582
      ],
      "min": [
        0.0,
        0.5624998807907104
      ],
      "type": "VEC2"
    },
    {
      "bufferView": 0,
      "byteOffset": 199680,
      "componentType": 5125,
      "count": 34560,
      "type": "SCALAR"
    }
  ],
  "asset": {
    "extras": {
      "author": "ARKON MAREK (https://sketchfab.com/ARKON-83)",
      "license": "CC-BY-4.0 (http://creativecommons.org/licenses/by/4.0/)",
      "source": "https://sketchfab.com/3d-models/pokeball-60e6abc95e6f4459bd440e1ccb620a7a",
      "title": "Pokeball"
    },
    "generator": "Sketchfab-15.55.0",
    "version": "2.0"
  },
  "bufferViews": [
    {
      "buffer": 0,
      "byteLength": 337920,
      "name": "floatBufferViews",
      "target": 34963
    },
    {
      "buffer": 0,
      "byteLength": 131928,
      "byteOffset": 337920,
      "byteStride": 8,
      "name": "floatBufferViews",
      "target": 34962
    },
    {
      "buffer": 0,
      "byteLength": 395784,
      "byteOffset": 469848,
      "byteStride": 12,
      "name": "floatBufferViews",
      "target": 34962
    }
  ],
  "buffers": [
    {
      "byteLength": 865632,
      "uri": "ltf.bin"
    }
  ],
  "materials": [
    {
      "doubleSided": true,
      "name": "material",
      "pbrMetallicRoughness": {
        "baseColorFactor": [
          0.0,
          0.0,
          0.0,
          1.0
        ],
        "metallicFactor": 0.109,
        "roughnessFactor": 0.4976831282573631
      }
    },
    {
      "doubleSided": true,
      "name": "material_1",
      "pbrMetallicRoughness": {
        "baseColorFactor": [
          0.8,
          0.8,
          0.8,
          1.0
        ],
        "metallicFactor": 0.109,
        "roughnessFactor": 0.9
      }
    },
    {
      "doubleSided": true,
      "name": "material_2",
      "pbrMetallicRoughness": {
        "baseColorFactor": [
          0.8001110000000001,
          0.0,
          0.0039438799999999665,
          1.0
        ],
        "metallicFactor": 0.10901050599249489,
        "roughnessFactor": 0.1
      }
    }
  ],
  "meshes": [
    {
      "name": "Sphere.005_2_0",
      "primitives": [
        {
          "attributes": {
            "NORMAL": 1,
            "POSITION": 0,
            "TEXCOORD_0": 2
          },
          "indices": 3,
          "material": 0,
          "mode": 4
        }
      ]
    },
    {
      "name": "Sphere.005_1_0",
      "primitives": [
        {
          "attributes": {
            "NORMAL": 5,
            "POSITION": 4,
            "TEXCOORD_0": 6
          },
          "indices": 7,
          "material": 1,
          "mode": 4
        }
      ]
    },
    {
      "name": "Sphere.005_3_0",
      "primitives": [
        {
          "attributes": {
            "NORMAL": 9,
            "POSITION": 8,
            "TEXCOORD_0": 10
          },
          "indices": 11,
          "material": 2,
          "mode": 4
        }
      ]
    }
  ],
  "nodes": [
    {
      "children": [
        1
      ],
      "matrix": [
        1.0,
        0.0,
        0.0,
        0.0,
        0.0,
        2.220446049250313e-16,
        -1.0,
        0.0,
        0.0,
        1.0,
        2.220446049250313e-16,
        0.0,
        0.0,
        0.0,
        0.0,
        1.0
      ],
      "name": "Sketchfab_model"
    },
    {
      "children": [
        2
      ],
      "matrix": [
        0.009999999776482582,
        0.0,
        0.0,
        0.0,
        0.0,
        0.0,
        0.009999999776482582,
        0.0,
        0.0,
        -0.009999999776482582,
        0.0,
        0.0,
        0.0,
        0.0,
        0.0,
        1.0
      ],
      "name": "d6154770458946388f0e565c59f22fd8.fbx"
    },
    {
      "children": [
        3
      ],
      "name": "RootNode"
    },
    {
      "children": [
        4,
        5,
        6
      ],
      "matrix": [
        166.4146270751953,
        0.0,
        0.0,
        0.0,
        0.0,
        1.256395480667966e-05,
        -166.41462707519483,
        0.0,
        0.0,
        166.41462707519483,
        1.256395480667966e-05,
        0.0,
        0.0,
        0.0,
        0.0,
        1.0
      ],
      "name": "Sphere.005"
    },
    {
      "mesh": 0,
      "name": "Sphere.005_2_0"
    },
    {
      "mesh": 1,
      "name": "Sphere.005_1_0"
    },
    {
      "mesh": 2,
      "name": "Sphere.005_3_0"
    }
  ],
  "scene": 0,
  "scenes": [
    {
      "name": "Sketchfab_Scene",
      "nodes": [
        0
      ]
    }
  ]
}
