{
  "accessors": [
    {
      "bufferView": 2,
      "componentType": 5126,
      "count": 96,
      "max": [
        0.6891056299209595,
        0.6692923903465271,
        0.6891055703163147
      ],
      "min": [
        -0.6891055703163147,
        0.6014244556427002,
        -0.6891055107116699
      ],
      "type": "VEC3"
    },
    {
      "bufferView": 2,
      "byteOffset": 1152,
      "componentType": 5126,
      "count": 96,
      "max": [
        0.45910078287124634,
        0.9350945353507996,
        0.45910078287124634
      ],
      "min": [
        -0.45910078287124634,
        0.8883819580078125,
        -0.45910078287124634
      ],
      "type": "VEC3"
    },
    {
      "bufferView": 1,
      "componentType": 5126,
      "count": 96,
      "max": [
        0.0,
        0.0
      ],
      "min": [
        0.0,
        0.0
      ],
      "type": "VEC2"
    },
    {
      "bufferView": 0,
      "componentType": 5125,
      "count": 384,
      "type": "SCALAR"
    },
    {
      "bufferView": 2,
      "byteOffset": 2304,
      "componentType": 5126,
      "count": 96,
      "max": [
        0.9976003170013428,
        0.6050288081169128,
        1.0018715858459473
      ],
      "min": [
        -1.0023996829986572,
        0.31018200516700745,
        -0.9981284141540527
      ],
      "type": "VEC3"
    },
    {
      "bufferView": 2,
      "byteOffset": 3456,
      "componentType": 5126,
      "count": 96,
      "max": [
        0.740577757358551,
        0.8883867263793945,
        0.7377403974533081
      ],
      "min": [
        -0.7373758554458618,
        0.6714848279953003,
        -0.7402438521385193
      ],
      "type": "VEC3"
    },
    {
      "bufferView": 1,
      "byteOffset": 768,
      "componentType": 5126,
      "count": 96,
      "max": [
        0.0,
        0.0
      ],
      "min": [
        0.0,
        0.0
      ],
      "type": "VEC2"
    },
    {
      "bufferView": 0,
      "byteOffset": 1536,
      "componentType": 5125,
      "count": 384,
      "type": "SCALAR"
    },
    {
      "bufferView": 2,
      "byteOffset": 4608,
      "componentType": 5126,
      "count": 32,
      "max": [
        0.5793094635009766,
        0.6692923903465271,
        0.5793092250823975
      ],
      "min": [
        -0.5793094038963318,
        0.6692923903465271,
        -0.5793091654777527
      ],
      "type": "VEC3"
    },
    {
      "bufferView": 2,
      "byteOffset": 4992,
      "componentType": 5126,
      "count": 32,
      "max": [
        0.4326397776603699,
        0.9015754461288452,
        0.4326397776603699
      ],
      "min": [
        -0.4326397776603699,
        0.9015656113624573,
        -0.4326397776603699
      ],
      "type": "VEC3"
    },
    {
      "bufferView": 1,
      "byteOffset": 1536,
      "componentType": 5126,
      "count": 32,
      "max": [
        0.0,
        0.0
      ],
      "min": [
        0.0,
        0.0
      ],
      "type": "VEC2"
    },
    {
      "bufferView": 0,
      "byteOffset": 3072,
      "componentType": 5125,
      "count": 90,
      "type": "SCALAR"
    },
    {
      "bufferView": 2,
      "byteOffset": 5376,
      "componentType": 5126,
      "count": 689,
      "max": [
        2.594271183013916,
        0.4996528625488281,
        -0.23278160393238068
      ],
      "min": [
        -2.601130962371826,
        -4.685493469238281,
        -2.6175930500030518
      ],
      "type": "VEC3"
    },
    {
      "bufferView": 2,
      "byteOffset": 13644,
      "componentType": 5126,
      "count": 689,
      "max": [
        0.9882578253746033,
        0.995698094367981,
        -0.09192467480897903
      ],
      "min": [
        -0.9874436855316162,
        -0.9761043190956116,
        -0.9990239143371582
      ],
      "type": "VEC3"
    },
    {
      "bufferView": 1,
      "byteOffset": 1792,
      "componentType": 5126,
      "count": 689,
      "max": [
        1.0000001192092896,
        0.4516129493713379
      ],
      "min": [
        0.0,
        0.0
      ],
      "type": "VEC2"
    },
    {
      "bufferView": 0,
      "byteOffset": 3432,
      "componentType": 5125,
      "count": 3645,
      "type": "SCALAR"
    },
    {
      "bufferView": 2,
      "byteOffset": 21912,
      "componentType": 5126,
      "count": 138,
      "max": [
        2.6212143898010254,
        0.5107648372650146,
        0.2992999851703644
      ],
      "min": [
        -2.6280527114868164,
        -4.744010925292969,
        -0.542236328125
      ],
      "type": "VEC3"
    },
    {
      "bufferView": 2,
      "byteOffset": 23568,
      "componentType": 5126,
      "count": 138,
      "max": [
        0.9984565377235413,
        0.9998902082443237,
        0.10992815345525742
      ],
      "min": [
        -0.9976367950439453,
        -0.9982808828353882,
        -0.20960773527622223
      ],
      "type": "VEC3"
    },
    {
      "bufferView": 1,
      "byteOffset": 7304,
      "componentType": 5126,
      "count": 138,
      "max": [
        1.0,
        0.5161290168762207
      ],
      "min": [
        2.9802322387695313e-08,
        0.4516128897666931
      ],
      "type": "VEC2"
    },
    {
      "bufferView": 0,
      "byteOffset": 18012,
      "componentType": 5125,
      "count": 540,
      "type": "SCALAR"
    },
    {
      "bufferView": 2,
      "byteOffset": 25224,
      "componentType": 5126,
      "count": 735,
      "max": [
        2.6212143898010254,
        0.49489426612854004,
        2.6373825073242188
      ],
      "min": [
        -2.6280527114868164,
        -4.744010925292969,
        -0.01336313784122467
      ],
      "type": "VEC3"
    },
    {
      "bufferView": 2,
      "byteOffset": 34044,
      "componentType": 5126,
      "count": 735,
      "max": [
        0.9984557032585144,
        0.993870198726654,
        0.9990331530570984
      ],
      "min": [
        -0.9976367950439453,
        -0.9982808828353882,
        -0.008942106738686562
      ],
      "type": "VEC3"
    },
    {
      "bufferView": 1,
      "byteOffset": 8408,
      "componentType": 5126,
      "count": 735,
      "max": [
        1.0000001192092896,
        1.0
      ],
      "min": [
        0.0,
        0.5161290168762207
      ],
      "type": "VEC2"
    },
    {
      "bufferView": 0,
      "byteOffset": 20172,
      "componentType": 5125,
      "count": 3915,
      "type": "SCALAR"
    }
  ],
  "asset": {
    "extras": {
      "author": "RSCv2 (https://sketchfab.com/RSCv2)",
      "license": "CC-BY-4.0 (http://creativecommons.org/licenses/by/4.0/)",
      "source": "https://sketchfab.com/3d-models/poke-ball-f0feb812d4b7416ab630e79a531dc601",
      "title": "Poke Ball"
    },
    "generator": "Sketchfab-12.66.0",
    "version": "2.0"
  },
  "bufferViews": [
    {
      "buffer": 0,
      "byteLength": 35832,
      "name": "floatBufferViews",
      "target": 34963
    },
    {
      "buffer": 0,
      "byteLength": 14288,
      "byteOffset": 35832,
      "byteStride": 8,
      "name": "floatBufferViews",
      "target": 34962
    },
    {
      "buffer": 0,
      "byteLength": 42864,
      "byteOffset": 50120,
      "byteStride": 12,
      "name": "floatBufferViews",
      "target": 34962
    }
  ],
  "buffers": [
    {
      "byteLength": 92984,
      "uri": "scene.bin"
    }
  ],
  "materials": [
    {
      "doubleSided": true,
      "name": "Material.003",
      "pbrMetallicRoughness": {
        "baseColorFactor": [
          0.8,
          0.8,
          0.8,
          1.0
        ],
        "roughnessFactor": 0.238182
      }
    },
    {
      "doubleSided": true,
      "name": "Material.009",
      "pbrMetallicRoughness": {
        "baseColorFactor": [
          0.0,
          0.0,
          0.0,
          1.0
        ],
        "roughnessFactor": 0.0890909
      }
    },
    {
      "doubleSided": true,
      "emissiveFactor": [
        0.23074,
        0.467784,
        0.571125
      ],
      "name": "Material.010",
      "pbrMetallicRoughness": {
        "baseColorFactor": [
          0.209878,
          0.585149,
          0.8,
          1.0
        ],
        "roughnessFactor": 0.5
      }
    },
    {
      "doubleSided": true,
      "name": "Material",
      "pbrMetallicRoughness": {
        "baseColorFactor": [
          1.0,
          0.0,
          0.000396729,
          1.0
        ],
        "roughnessFactor": 0.0472727
      }
    },
    {
      "doubleSided": true,
      "name": "Material.001",
      "pbrMetallicRoughness": {
        "baseColorFactor": [
          0.0,
          0.0,
          0.0,
          1.0
        ],
        "roughnessFactor": 0.0963636
      }
    },
    {
      "doubleSided": true,
      "name": "Material.002",
      "pbrMetallicRoughness": {
        "baseColorFactor": [
          0.8,
          0.8,
          0.8,
          1.0
        ],
        "roughnessFactor": 0.3
      }
    }
  ],
  "meshes": [
    {
      "name": "Object_0",
      "primitives": [
        {
          "attributes": {
            "NORMAL": 1,
            "POSITION": 0,
            "TEXCOORD_0": 2
          },
          "indices": 3,
          "material": 0,
          "mode": 4
        }
      ]
    },
    {
      "name": "Object_1",
      "primitives": [
        {
          "attributes": {
            "NORMAL": 5,
            "POSITION": 4,
            "TEXCOORD_0": 6
          },
          "indices": 7,
          "material": 1,
          "mode": 4
        }
      ]
    },
    {
      "name": "Object_2",
      "primitives": [
        {
          "attributes": {
            "NORMAL": 9,
            "POSITION": 8,
            "TEXCOORD_0": 10
          },
          "indices": 11,
          "material": 2,
          "mode": 4
        }
      ]
    },
    {
      "name": "Object_3",
      "primitives": [
        {
          "attributes": {
            "NORMAL": 13,
            "POSITION": 12,
            "TEXCOORD_0": 14
          },
          "indices": 15,
          "material": 3,
          "mode": 4
        }
      ]
    },
    {
      "name": "Object_4",
      "primitives": [
        {
          "attributes": {
            "NORMAL": 17,
            "POSITION": 16,
            "TEXCOORD_0": 18
          },
          "indices": 19,
          "material": 4,
          "mode": 4
        }
      ]
    },
    {
      "name": "Object_5",
      "primitives": [
        {
          "attributes": {
            "NORMAL": 21,
            "POSITION": 20,
            "TEXCOORD_0": 22
          },
          "indices": 23,
          "material": 5,
          "mode": 4
        }
      ]
    }
  ],
  "nodes": [
    {
      "children": [
        1
      ],
      "matrix": [
        1.0,
        0.0,
        0.0,
        0.0,
        0.0,
        2.220446049250313e-16,
        -1.0,
        0.0,
        0.0,
        1.0,
        2.220446049250313e-16,
        0.0,
        0.0,
        0.0,
        0.0,
        1.0
      ],
      "name": "Sketchfab_model"
    },
    {
      "children": [
        2
      ],
      "name": "root"
    },
    {
      "children": [
        3
      ],
      "matrix": [
        1.0,
        0.0,
        0.0,
        0.0,
        0.0,
        2.220446049250313e-16,
        1.0,
        0.0,
        0.0,
        -1.0,
        2.220446049250313e-16,
        0.0,
        0.0,
        0.0,
        0.0,
        1.0
      ],
      "name": "GLTF_SceneRootNode"
    },
    {
      "children": [
        4,
        5,
        6,
        7,
        8,
        9
      ],
      "matrix": [
        -5.806278225996601,
        1.6522688310853731e-09,
        0.0683642737174786,
        -0.0,
        0.06824284737609483,
        0.3459330372110825,
        5.795965300029933,
        -0.0,
        0.004072800378285748,
        -5.796367038531037,
        0.3459090610712051,
        -0.0,
        17.276168823242188,
        9.105555534362793,
        12.277030944824219,
        1.0
      ],
      "name": "1_0"
    },
    {
      "mesh": 0,
      "name": "Object_4"
    },
    {
      "mesh": 1,
      "name": "Object_5"
    },
    {
      "mesh": 2,
      "name": "Object_6"
    },
    {
      "mesh": 3,
      "name": "Object_7"
    },
    {
      "mesh": 4,
      "name": "Object_8"
    },
    {
      "mesh": 5,
      "name": "Object_9"
    }
  ],
  "scene": 0,
  "scenes": [
    {
      "name": "Sketchfab_Scene",
      "nodes": [
        0
      ]
    }
  ]
}
