{
  "accessors": [
    {
      "bufferView": 1,
      "componentType": 5126,
      "count": 33014,
      "max": [
        1.4599380493164063,
        1.4588550329208374,
        2.9345810413360596
      ],
      "min": [
        -1.4674140214920044,
        -1.4625060558319092,
        -0.003860000055283308
      ],
      "type": "VEC3"
    },
    {
      "bufferView": 1,
      "byteOffset": 396168,
      "componentType": 5126,
      "count": 33014,
      "max": [
        0.9999850988388062,
        0.9999731779098511,
        0.9999784231185913
      ],
      "min": [
        -0.998667299747467,
        -0.9999860525131226,
        -0.9999305009841919
      ],
      "type": "VEC3"
    },
    {
      "bufferView": 0,
      "componentType": 5125,
      "count": 195072,
      "type": "SCALAR"
    }
  ],
  "asset": {
    "extras": {
      "author": "JanesBT (https://sketchfab.com/JanesBt)",
      "license": "CC-BY-4.0 (http://creativecommons.org/licenses/by/4.0/)",
      "source": "https://sketchfab.com/3d-models/snowball-low-resources-674514e34e04477ea4074c7f12917e31",
      "title": "Snowball - Low resources"
    },
    "generator": "Sketchfab-14.10.0",
    "version": "2.0"
  },
  "bufferViews": [
    {
      "buffer": 0,
      "byteLength": 780288,
      "name": "floatBufferViews",
      "target": 34963
    },
    {
      "buffer": 0,
      "byteLength": 792336,
      "byteOffset": 780288,
      "byteStride": 12,
      "name": "floatBufferViews",
      "target": 34962
    }
  ],
  "buffers": [
    {
      "byteLength": 1572624,
      "uri": "scene.bin"
    }
  ],
  "materials": [
    {
      "doubleSided": true,
      "name": "None",
      "pbrMetallicRoughness": {
        "baseColorFactor": [
          0.9475976953450594,
          0.9475976953450594,
          0.9475976953450594,
          1.0
        ],
        "metallicFactor": 0.0
      }
    }
  ],
  "meshes": [
    {
      "name": "Object_0",
      "primitives": [
        {
          "attributes": {
            "NORMAL": 1,
            "POSITION": 0
          },
          "indices": 2,
          "material": 0,
          "mode": 4
        }
      ]
    }
  ],
  "nodes": [
    {
      "children": [
        1
      ],
      "matrix": [
        1.0,
        0.0,
        0.0,
        0.0,
        0.0,
        2.220446049250313e-16,
        -1.0,
        0.0,
        0.0,
        1.0,
        2.220446049250313e-16,
        0.0,
        0.0,
        0.0,
        0.0,
        1.0
      ],
      "name": "Sketchfab_model"
    },
    {
      "children": [
        2
      ],
      "name": "snowball.obj.cleaner.materialmerger.gles"
    },
    {
      "mesh": 0,
      "name": "Object_2"
    }
  ],
  "scene": 0,
  "scenes": [
    {
      "name": "Sketchfab_Scene",
      "nodes": [
        0
      ]
    }
  ]
}
